<!-- Generated by IcoMoon.io -->
<svg version="1.1" xmlns="http://www.w3.org/2000/svg" width="32" height="32" viewBox="0 0 32 32">
<title>facebook-fill</title>
<path fill="#fff" d="M30.238 0h-28.475c-0.971 0-1.762 0.791-1.762 1.762v28.463c0 0.971 0.791 1.762 1.762 1.762h15.323v-12.385h-4.172v-4.832h4.172v-3.549c0-4.136 2.53-6.378 6.211-6.378 1.762 0 3.285 0.132 3.729 0.192v4.316h-2.554c-2.002 0-2.398 0.947-2.398 2.35v3.081h4.784l-0.623 4.832h-4.16v12.397h8.153c0.971 0 1.762-0.791 1.762-1.762v-28.487c0.012-0.971-0.779-1.762-1.75-1.762z"></path>
</svg>
