<!-- Generated by IcoMoon.io -->
<svg version="1.1" xmlns="http://www.w3.org/2000/svg" width="32" height="32" viewBox="0 0 32 32">
<title>instagram</title>
<path fill="#fff" d="M16 2.881c4.277 0 4.776 0.012 6.472 0.087 1.559 0.075 2.407 0.337 2.968 0.549 0.748 0.287 1.285 0.636 1.846 1.197s0.91 1.097 1.197 1.846c0.224 0.561 0.474 1.409 0.549 2.968 0.075 1.684 0.087 2.195 0.087 6.472s-0.012 4.776-0.087 6.472c-0.075 1.559-0.337 2.407-0.549 2.968-0.287 0.748-0.636 1.285-1.197 1.846s-1.097 0.91-1.846 1.197c-0.561 0.224-1.409 0.474-2.968 0.549-1.684 0.075-2.195 0.087-6.472 0.087s-4.776-0.012-6.472-0.087c-1.559-0.075-2.407-0.337-2.968-0.549-0.748-0.287-1.285-0.636-1.846-1.197s-0.91-1.097-1.197-1.846c-0.224-0.561-0.474-1.409-0.549-2.968-0.075-1.684-0.087-2.195-0.087-6.472s0.012-4.776 0.087-6.472c0.075-1.559 0.337-2.407 0.549-2.968 0.287-0.748 0.636-1.285 1.197-1.846s1.097-0.91 1.846-1.197c0.561-0.224 1.409-0.474 2.968-0.549 1.696-0.062 2.207-0.087 6.472-0.087zM16 0c-4.34 0-4.889 0.012-6.597 0.1-1.708 0.075-2.868 0.349-3.878 0.748-1.048 0.412-1.945 0.96-2.831 1.846-0.898 0.885-1.447 1.771-1.858 2.831-0.399 1.023-0.661 2.182-0.748 3.891-0.075 1.696-0.087 2.245-0.087 6.585 0 4.352 0.012 4.889 0.1 6.597 0.075 1.709 0.349 2.868 0.748 3.891 0.412 1.048 0.96 1.945 1.846 2.831s1.783 1.434 2.831 1.846c1.023 0.399 2.182 0.661 3.878 0.748 1.708 0.075 2.257 0.1 6.597 0.1 4.352 0 4.889-0.012 6.597-0.1 1.709-0.075 2.868-0.349 3.878-0.748 1.048-0.412 1.945-0.96 2.831-1.846s1.434-1.783 1.846-2.831c0.399-1.023 0.661-2.182 0.748-3.891 0.075-1.709 0.1-2.257 0.1-6.597 0-4.352-0.012-4.889-0.1-6.597-0.075-1.708-0.349-2.868-0.748-3.891-0.412-1.048-0.96-1.945-1.846-2.831-0.873-0.885-1.771-1.434-2.818-1.846-1.023-0.399-2.182-0.661-3.878-0.748-1.721-0.075-2.257-0.087-6.61-0.087z"></path>
<path fill="#fff" d="M16 7.782c-4.539 0-8.218 3.679-8.218 8.218s3.679 8.218 8.218 8.218c4.539 0 8.218-3.679 8.218-8.218s-3.679-8.218-8.218-8.218zM16 21.337c-2.943 0-5.338-2.394-5.338-5.338s2.394-5.338 5.338-5.338c2.943 0 5.337 2.394 5.337 5.338s-2.394 5.338-5.338 5.338z"></path>
<path fill="#fff" d="M26.463 7.458c0 1.060-0.86 1.92-1.921 1.92s-1.921-0.86-1.921-1.921c0-1.060 0.86-1.921 1.921-1.921s1.921 0.86 1.921 1.921z"></path>
</svg>
