<!-- Generated by IcoMoon.io -->
<svg version="1.1" xmlns="http://www.w3.org/2000/svg" width="32" height="32" viewBox="0 0 32 32">
<title>snapchat</title>
<path fill="#fff" d="M24.225 6.094c0.45 0.963 0.525 2.45 0.525 3.5 0 1.25-0.1 2.488-0.175 3.738 0.163 0.075 0.375 0.137 0.55 0.137 0.7 0 1.288-0.525 2-0.525 0.663 0 1.625 0.475 1.625 1.25 0 1.875-3.938 1.525-3.938 3.175 0 0.288 0.113 0.563 0.238 0.837 0.938 2.063 2.725 4.038 4.838 4.913 0.512 0.212 1.012 0.337 1.563 0.45 0.35 0.075 0.55 0.337 0.55 0.688 0 1.337-3.387 1.875-4.288 2.012-0.387 0.613-0.1 2.038-1.137 2.038-0.8 0-1.6-0.25-2.462-0.25-0.413 0-0.825 0.025-1.212 0.1-2.325 0.387-3.113 2.9-6.938 2.9-3.688 0-4.563-2.512-6.838-2.9-0.412-0.075-0.825-0.1-1.237-0.1-0.875 0-1.725 0.288-2.425 0.288-1.1 0-0.763-1.45-1.175-2.075-0.9-0.125-4.287-0.675-4.287-2 0-0.35 0.2-0.613 0.55-0.688 0.55-0.113 1.063-0.238 1.562-0.45 2.1-0.863 3.912-2.863 4.838-4.913 0.112-0.275 0.237-0.55 0.237-0.837 0-1.65-3.95-1.337-3.95-3.15 0-0.762 0.9-1.25 1.588-1.25 0.612 0 1.213 0.512 1.975 0.512 0.213 0 0.425-0.037 0.625-0.137-0.075-1.25-0.175-2.487-0.175-3.737 0-1.063 0.075-2.563 0.525-3.525 1.725-3.725 4.638-5.075 8.538-5.112 3.525-0.037 6.45 1.938 7.912 5.112z"></path>
</svg>
