<!-- Generated by IcoMoon.io -->
<svg version="1.1" xmlns="http://www.w3.org/2000/svg" width="32" height="32" viewBox="0 0 32 32">
<title>spotify</title>
<path fill="#fff" d="M16 0c-8.837 0-16 7.163-16 16s7.163 16 16 16c8.837 0 16-7.163 16-16s-7.163-16-16-16zM23.31 23.035c-0.252 0.423-0.786 0.593-1.242 0.392-0.092-0.041-0.178-0.095-0.264-0.146-1.693-1.004-3.52-1.625-5.463-1.923-1.192-0.183-2.39-0.246-3.594-0.198-1.557 0.061-3.094 0.277-4.615 0.614-0.154 0.034-0.312 0.065-0.468 0.067-0.471 0.005-0.868-0.329-0.951-0.782-0.015-0.081-0.020-0.161-0.017-0.24-0.017-0.42 0.214-0.795 0.607-0.953 0.093-0.037 0.192-0.061 0.29-0.083 1.244-0.279 2.5-0.49 3.77-0.598 0.709-0.060 1.422-0.084 2.132-0.123 2.104 0.022 4.162 0.306 6.159 0.98 1.102 0.372 2.154 0.852 3.153 1.447 0.086 0.052 0.174 0.102 0.254 0.163 0.267 0.203 0.403 0.514 0.389 0.828 0.008 0.188-0.037 0.381-0.141 0.555zM25.267 18.682c-0.353 0.581-1.088 0.761-1.699 0.417-0.345-0.194-0.685-0.397-1.038-0.577-1.615-0.823-3.327-1.357-5.104-1.693-1.368-0.259-2.749-0.386-4.216-0.392-1.828 0.008-3.7 0.234-5.528 0.777-0.298 0.088-0.597 0.094-0.889-0.024-0.475-0.192-0.784-0.669-0.767-1.172 0-0.002 0-0.004 0-0.006-0.001-0.027-0.001-0.054-0-0.081 0.017-0.525 0.338-0.983 0.845-1.138 0.516-0.157 1.039-0.294 1.565-0.411 1.296-0.288 2.608-0.44 3.935-0.49 2.854-0.108 5.642 0.261 8.362 1.133 1.375 0.441 2.691 1.018 3.934 1.757 0.062 0.037 0.123 0.074 0.185 0.112 0.426 0.26 0.605 0.694 0.59 1.105 0.007 0.244-0.054 0.485-0.174 0.682zM25.456 14.156c-0.69-0.39-1.396-0.744-2.132-1.039-1.462-0.586-2.976-0.98-4.525-1.253-1.078-0.19-2.164-0.316-3.255-0.382-1.135-0.068-2.271-0.076-3.408-0.017-1.303 0.067-2.595 0.21-3.87 0.486-0.471 0.102-0.936 0.23-1.401 0.354-0.285 0.076-0.567 0.086-0.851 0.003-0.622-0.182-1.051-0.739-1.070-1.392-0.001-0.027-0-0.055 0-0.082-0-0.002-0-0.003-0-0.005-0.018-0.634 0.373-1.224 0.988-1.426 0.45-0.148 0.912-0.265 1.374-0.372 1.144-0.264 2.304-0.428 3.473-0.535 1.241-0.113 2.485-0.15 3.73-0.114 3.066 0.088 6.072 0.536 8.982 1.541 1.186 0.41 2.328 0.918 3.413 1.551 0.387 0.226 0.647 0.544 0.745 0.984 0.023 0.104 0.029 0.213 0.043 0.32-0 0.024-0.001 0.047-0.002 0.070 0.001 0.005 0.001 0.011 0.002 0.016-0.005 1.159-1.219 1.868-2.237 1.292z"></path>
</svg>
