<svg xmlns="http://www.w3.org/2000/svg" width="20.985" height="20.985" viewBox="0 0 20.985 20.985"><g id="Group_13" data-name="Group 13" transform="translate(.5 .5)" fill="none" stroke="#fff" stroke-linecap="round" stroke-linejoin="round" stroke-width="1"><path id="Path_24" data-name="Path 24" d="M6 1h9.993a4.948 4.948 0 0 1 5 5v9.993a4.948 4.948 0 0 1-5 5H6a4.948 4.948 0 0 1-5-5V6a4.948 4.948 0 0 1 5-5z" transform="translate(-1 -1)"></path><path id="Path_25" data-name="Path 25" d="M14.994 10.4A3.985 3.985 0 1 1 7.1 11.5 4.017 4.017 0 0 1 10.5 7a2.436 2.436 0 0 1 1.2 0 4.032 4.032 0 0 1 3.294 3.4z" transform="translate(-1.004 -1.004)"></path><path id="Line_5" data-name="Line 5" transform="translate(15.489 4.497)" d="M0 0h0"></path></g></svg>