<svg xmlns="http://www.w3.org/2000/svg" width="68.474" height="68.473" viewBox="0 0 68.474 68.473"><g id="insta_feed_icon" data-name="insta feed icon" transform="translate(13.737 14.877)"><path id="Rectangle_127" data-name="Rectangle 127" transform="rotate(159 24.162 22.374)" fill="#4942db" d="M0 0h53v53H0z" ></path><path id="Path_24" data-name="Path 24" d="M11.542 3.742h15.614a7.729 7.729 0 0 1 7.8 7.8v15.614a7.729 7.729 0 0 1-7.8 7.8H11.542a7.729 7.729 0 0 1-7.8-7.8V11.542a7.729 7.729 0 0 1 7.8-7.8z" fill="none" stroke="#12d9c5" stroke-linecap="round" stroke-linejoin="round" stroke-width="3"></path><path id="Path_25" data-name="Path 25" d="M25.595 18.415a6.225 6.225 0 1 1-12.332 1.717 6.275 6.275 0 0 1 5.307-7.024 3.8 3.8 0 0 1 1.873 0 6.3 6.3 0 0 1 5.152 5.307z" fill="none" stroke="#12d9c5" stroke-linecap="round" stroke-linejoin="round" stroke-width="3"></path><path id="Line_5" data-name="Line 5" fill="none" stroke="#12d9c5" stroke-linecap="round" stroke-linejoin="round" stroke-width="3" d="M27.937 10.766h0"></path></g></svg>