<svg xmlns="http://www.w3.org/2000/svg" width="26.865" height="22.292" viewBox="0 0 26.865 22.292"><path id="Path_23" data-name="Path 23" d="M26.365.571a11.6 11.6 0 0 1-3.645 1.764 5.126 5.126 0 0 0-7.407-.47 5 5 0 0 0-1.881 4v1.173A12.57 12.57 0 0 1 2.851 1.747S-1.851 12.328 8.73 17.031A13.724 13.724 0 0 1 .5 19.382c10.581 5.878 23.514 0 23.514-13.52a2.292 2.292 0 0 0-.114-.941 8.976 8.976 0 0 0 2.465-4.35z" fill="none" stroke="#fff" stroke-linecap="round" stroke-linejoin="round" stroke-width="1"></path></svg>