<svg xmlns="http://www.w3.org/2000/svg" width="264" height="68.762" viewBox="0 0 264 68.762"><path d="M203.552 37.714a18.65 18.65 0 0 0 18.36-14.297h-9.708c-.588 1.294-2.942 6.119-8.767 6.119-6.06 0-9.767-5.3-9.767-10.826 0-5.178 3.471-10.591 9.708-10.591a9.367 9.367 0 0 1 8.767 6.354h9.708A18.575 18.575 0 0 0 203.375 0a18.763 18.763 0 0 0-19.063 18.828 19.018 19.018 0 0 0 19.24 18.887m-185.783-.666l5.471-15.062h.06l5.471 15.062h8.119L46.54.629h-8.826l-5.53 23.888h-.059l-5.3-15.3H19.71l-5.354 15.182H14.3L8.825.629H0l9.355 36.42zm225.226-15.71l2.824-9.355h.177l.647 2.118 1.765 5.589-5.769 2.884zm-4.3 12.65l.647-1.824 11.414-5.178 1.294 4.119c.647 1.942 1.236 3.942 1.883 5.884h10.061L249.526.629h-7.3l-14.587 36.42h9.943c.412-1 .765-2.059 1.118-3.06m-82.724-12.65l2.824-9.355h.176l.644 2.119 1.765 5.589-5.765 2.883zm-4.3 12.65l.647-1.824 11.414-5.178 1.294 4.119c.647 1.942 1.236 3.942 1.883 5.884h10.061L162.507.629h-7.3l-14.587 36.42h9.943c.353-1 .706-2.059 1.118-3.06m-84.725-12.65l2.824-9.355h.177l.647 2.118 1.765 5.589-5.769 2.884zM62.6 33.989l.647-1.824 11.414-5.178 1.294 4.119c.647 1.942 1.236 3.942 1.883 5.884H87.9L73.487.629h-7.3L51.6 37.049h9.943c.353-1 .706-2.059 1.059-3.06m45.657.412v-8.472l11.885-5.648v16.827h9.3V.688h-9.3v11.12l-11.885 5.648V.688h-9.237v36.42h9.237zM259.293 54.23h-.059l-12.591 5.943-12.591-5.943-12.591 5.943-12.532-5.943-12.591 5.943-12.592-5.943-12.591 5.943-12.591-5.943-12.591 5.943-12.532-5.943-12.591 5.943-12.591-5.943-12.591 5.943-12.591-5.943-12.591 5.942-12.591-5.942h-.059l-12.53 5.942-12.534-5.942h-.059l-12.591 5.943-13.533-6.414-3.883 6.766 17.416 8.234 1.706-.765 10.885-5.178 12.593 5.943h.059l12.532-5.942 12.589 5.942 12.591-5.942 12.591 5.942 12.591-5.942 12.591 5.942 12.591-5.942 12.532 5.942 12.591-5.942 12.591 5.942 12.591-5.942 12.591 5.942 12.591-5.942 12.532 5.942 12.591-5.942 12.591 5.942 17.357-8.237z" fill="#4942db"></path></svg>