<svg xmlns="http://www.w3.org/2000/svg" width="23.001" height="16.46" viewBox="0 0 23.001 16.46"><g id="Group_209" data-name="Group 209" transform="translate(-.499 -3.5)" fill="none" stroke="#fff" stroke-linecap="round" stroke-linejoin="round" stroke-width="1"><path id="Path_1627" data-name="Path 1627" d="M22.54 6.42a2.781 2.781 0 0 0-1.94-2C18.88 4 12 4 12 4s-6.88 0-8.6.46a2.781 2.781 0 0 0-1.94 2A28.961 28.961 0 0 0 1 11.75a29.042 29.042 0 0 0 .46 5.33A2.78 2.78 0 0 0 3.4 19c1.72.46 8.6.46 8.6.46s6.88 0 8.6-.46a2.781 2.781 0 0 0 1.94-2 29.061 29.061 0 0 0 .46-5.25 29.042 29.042 0 0 0-.46-5.33z"></path><path id="Path_1628" data-name="Path 1628" d="M9.75 15.02l5.75-3.27-5.75-3.27z"></path></g></svg>